# xmcd CD database file
# Copyright (C) 1995-1998 Ti Kan
#
# Track frame offsets:
#	150
#	17797
#	36985
#	53490
#	69401
#	91080
#	105408
#	124506
#	144139
#	165428
#	179010
#	201570
#
# Disc length: 2989 seconds
#
# Revision: 1
# Processed by: cddbd v1.4PL0 Copyright (c) Steve Scherf et al.
# Submitted via: CDex 1.30Release
#
DISCID=980bab0c
DTITLE=The Mudsliders - Spirit's Gonna Rise
DYEAR=2001
DGENRE=Blues
TTITLE0=Car Keys
TTITLE1=Outskirts Of Town
TTITLE2=Ain't That Lovin' You
TTITLE3=Angry Housewife Blues
TTITLE4=Why Don't You Do Right?
TTITLE5=Sally Sue Brown
TTITLE6=Girlish Days
TTITLE7=Talk To Your Daughter
TTITLE8=Blue Light Boogie
TTITLE9=Wrong Woman
TTITLE10=Love With A Feeling
TTITLE11=Take Out Some Insurance
EXTD=YEAR: 2001 ID3G:   0
EXTT0=
EXTT1=
EXTT2=
EXTT3=
EXTT4=
EXTT5=
EXTT6=
EXTT7=
EXTT8=
EXTT9=
EXTT10=
EXTT11=
PLAYORDER=
